<svg width="75" height="30" viewBox="0 0 75 30" fill="none" xmlns="http://www.w3.org/2000/svg">
<g clip-path="url(#clip0_1_7630)">
<path d="M68.5816 3.63193C70.3859 2.89702 72.4965 2.72178 73.2964 3.98683C74.7256 6.2494 70.8076 9.02535 67.0349 10.0488C66.1097 10.2998 65.6468 10.4254 64.901 10.1156C64.1552 9.80572 63.9247 9.3905 63.4639 8.5601C61.5743 5.15686 60.9296 0.480988 63.955 0.0207145C65.3995 -0.199099 66.5899 1.36554 67.2222 3.05033C67.4086 3.54739 67.5022 3.79591 67.6668 3.86655C67.8318 3.93718 68.0815 3.83543 68.5816 3.63193Z" fill="#FF4931"/>
<path d="M2.11132 5.8209C3.00125 5.8209 3.72264 6.55778 3.72264 7.71067V15.9739L3.87395 15.8434L8.49692 11.825C9.33242 11.0635 10.3997 11.133 10.9768 11.825C11.5538 12.517 11.4212 13.6238 10.5867 14.3309L7.17568 17.2947L10.8244 21.7316C11.5405 22.646 11.466 23.6925 10.7829 24.2752C10.0999 24.8578 9.09371 24.7187 8.35077 23.8416L4.71787 19.424L3.72264 20.2825V22.8289C3.72264 23.9818 3.00125 24.5968 2.11132 24.5968C1.2214 24.5968 0.5 23.9818 0.5 22.8289V7.71067C0.5 6.55778 1.2214 5.8209 2.11132 5.8209Z" fill="#FF4931"/>
<path d="M16.7437 12.9647C16.7437 11.7736 16.0367 11.194 15.1645 11.194C14.2924 11.194 13.5854 11.8657 13.5854 12.9647V22.7341C13.5854 23.8094 14.2924 24.6269 15.1645 24.6269C16.0367 24.6269 16.7572 23.8331 16.7437 22.7341V12.9647Z" fill="#FF4931"/>
<path d="M51.939 13.0868C51.939 11.9267 51.2321 11.194 50.3598 11.194C49.4874 11.194 48.7805 11.9878 48.7805 13.0868V22.7341C48.7805 23.8942 49.4874 24.6269 50.3598 24.6269C51.2321 24.6269 51.939 23.8942 51.939 22.7341V13.0868Z" fill="#FF4931"/>
<path fill-rule="evenodd" clip-rule="evenodd" d="M65.6115 24.6269C66.5334 24.6269 67.2805 23.8888 67.2805 22.9783C67.2805 22.0678 66.5334 21.3297 65.6115 21.3297C65.142 21.3297 64.9934 21.0243 64.9934 20.597V13.0869C64.9934 11.8562 64.2463 11.194 63.3244 11.194C62.7774 11.194 62.2917 11.4542 61.9875 11.8562C61.2434 11.4347 60.3749 11.194 59.4037 11.194C57.6445 11.194 56.1504 11.9257 55.1413 13.2313C54.1706 14.4871 53.7439 16.1432 53.7439 17.9104C53.7439 19.6629 54.1484 21.3208 55.1126 22.5825C56.1212 23.902 57.6234 24.6269 59.4037 24.6269C60.725 24.6269 61.8535 24.1954 62.7381 23.4675C63.4458 24.2107 64.4428 24.6269 65.6115 24.6269ZM60.9487 15.2886C61.3623 15.8573 61.6555 16.7614 61.6555 17.9104C61.6555 19.0744 61.3709 19.9772 60.9668 20.5397C60.6026 21.046 60.1175 21.3297 59.4037 21.3297C58.6148 21.3297 58.1216 21.0471 57.7765 20.596C57.3876 20.087 57.0818 19.211 57.0818 17.9104C57.0818 16.6248 57.3962 15.747 57.7941 15.2321C58.1538 14.767 58.6551 14.4912 59.4037 14.4912C60.0772 14.4912 60.5699 14.7673 60.9487 15.2886Z" fill="#FF4931"/>
<path d="M24.733 11.3137C25.4437 11.4408 26.0886 11.611 26.6881 12.0484C27.5385 12.6689 27.7259 13.6922 27.1936 14.4285C26.7966 14.9777 25.9592 14.9167 24.9266 14.6116C24.1343 14.3774 21.8288 13.9717 21.8288 15.2303C21.8288 15.8772 22.9886 16.1156 23.4647 16.2135L23.4923 16.2191C24.5173 16.4304 25.5977 16.7877 26.4546 17.4403C27.3796 18.1447 28.0244 19.1894 28.0244 20.5492C28.0244 21.753 27.5656 22.7662 26.7508 23.4803C25.9885 24.1484 25.0393 24.4483 24.1838 24.5611C22.5158 24.781 20.7219 24.4429 19.4599 23.6438C18.5488 23.0668 18.3185 22.0683 18.8014 21.2984C19.2844 20.5285 20.1281 20.3483 21.2089 20.8558C21.8455 21.1548 24.6836 21.935 24.7444 20.5492C24.7444 19.8324 23.4964 19.5811 22.9239 19.4659C22.8914 19.4593 22.8609 19.4531 22.8331 19.4474C21.9339 19.262 20.9223 18.9227 20.0991 18.2924C19.2219 17.6205 18.5488 16.5969 18.5488 15.2303C18.5488 14.026 19.0276 13.0341 19.8275 12.3417C20.573 11.6964 21.4931 11.3973 22.3069 11.2731C23.1352 11.1468 23.9867 11.1802 24.733 11.3137Z" fill="#FF4931"/>
<path d="M34.94 14.4912C34.0506 14.4912 33.1361 15.285 33.1361 16.6893V22.7341C33.1361 23.8331 32.3958 24.6269 31.4827 24.6269C30.5695 24.6269 29.8293 23.8331 29.8293 22.7341V13.1479C29.8293 11.8657 30.5695 11.2551 31.4827 11.2551C31.9213 11.2551 32.32 11.4254 32.616 11.7033C33.2551 11.3807 33.9929 11.194 34.8175 11.194C36.1793 11.194 37.4676 11.6726 38.4356 12.5285C39.2807 11.7168 40.4502 11.194 41.9041 11.194C43.6227 11.194 44.9568 11.91 45.8237 13.0037C46.6472 14.0432 46.9756 15.346 46.9756 16.6893V22.7341C46.9756 23.9552 46.2354 24.6269 45.3226 24.6269C44.4093 24.6269 43.6692 23.9552 43.6692 22.7341V16.6893C43.6692 15.346 43.0568 14.4912 41.9041 14.4912C40.6485 14.4912 40.1393 15.407 40.1393 16.6893V22.7341C40.1393 23.8942 39.399 24.6269 38.4859 24.6269C37.5727 24.6269 36.8325 23.8331 36.8325 22.7341V16.6893C36.8325 15.285 36.1238 14.4912 34.94 14.4912Z" fill="#FF4931"/>
<path d="M17.1951 8.05968C17.1951 9.29615 16.0841 10.2985 14.7134 10.2985C13.3428 10.2985 12.2317 9.29615 12.2317 8.05968C12.2317 6.82321 13.3428 5.8209 14.7134 5.8209C16.0841 5.8209 17.1951 6.82321 17.1951 8.05968Z" fill="#FF4931"/>
<path d="M52.3902 8.05968C52.3902 9.29615 51.481 10.2985 50.3595 10.2985C49.2384 10.2985 48.3293 9.29615 48.3293 8.05968C48.3293 6.82321 49.2384 5.8209 50.3595 5.8209C51.481 5.8209 52.3902 6.82321 52.3902 8.05968Z" fill="#FF4931"/>
</g>
<defs>
<clipPath id="clip0_1_7630">
<rect width="74" height="30" fill="white" transform="translate(0.5)"/>
</clipPath>
</defs>
</svg>
